<?xml version="1.0" encoding="UTF-8"?>
<svg version="1.1" xmlns="http://www.w3.org/2000/svg" width="160" height="160">
<path d="M0 0 C3.3 0 6.6 0 10 0 C10 3.3 10 6.6 10 10 C13.3 10 16.6 10 20 10 C20 6.7 20 3.4 20 0 C26.6 0 33.2 0 40 0 C40 3.3 40 6.6 40 10 C36.7 10 33.4 10 30 10 C30 19.9 30 29.8 30 40 C36.6 40 43.2 40 50 40 C50 36.7 50 33.4 50 30 C53.3 30 56.6 30 60 30 C60 26.7 60 23.4 60 20 C56.7 20 53.4 20 50 20 C50 13.4 50 6.8 50 0 C56.6 0 63.2 0 70 0 C70 3.3 70 6.6 70 10 C73.3 10 76.6 10 80 10 C80 13.3 80 16.6 80 20 C86.6 20 93.2 20 100 20 C100 26.6 100 33.2 100 40 C96.7 40 93.4 40 90 40 C90 46.6 90 53.2 90 60 C93.3 60 96.6 60 100 60 C100 66.6 100 73.2 100 80 C86.8 80 73.6 80 60 80 C60 86.6 60 93.2 60 100 C53.4 100 46.8 100 40 100 C40 96.7 40 93.4 40 90 C36.7 90 33.4 90 30 90 C30 96.6 30 103.2 30 110 C33.3 110 36.6 110 40 110 C40 119.9 40 129.8 40 140 C30.1 140 20.2 140 10 140 C10 133.4 10 126.8 10 120 C6.7 120 3.4 120 0 120 C0 116.7 0 113.4 0 110 C-3.3 110 -6.6 110 -10 110 C-10 113.3 -10 116.6 -10 120 C-13.3 120 -16.6 120 -20 120 C-20 116.7 -20 113.4 -20 110 C-23.3 110 -26.6 110 -30 110 C-30 103.4 -30 96.8 -30 90 C-33.3 90 -36.6 90 -40 90 C-40 86.7 -40 83.4 -40 80 C-36.7 80 -33.4 80 -30 80 C-30 76.7 -30 73.4 -30 70 C-33.3 70 -36.6 70 -40 70 C-40 66.7 -40 63.4 -40 60 C-43.3 60 -46.6 60 -50 60 C-50 53.4 -50 46.8 -50 40 C-46.7 40 -43.4 40 -40 40 C-40 36.7 -40 33.4 -40 30 C-36.7 30 -33.4 30 -30 30 C-30 23.4 -30 16.8 -30 10 C-20.1 10 -10.2 10 0 10 C0 6.7 0 3.4 0 0 Z M20 40 C20 43.3 20 46.6 20 50 C16.7 50 13.4 50 10 50 C10 56.6 10 63.2 10 70 C13.3 70 16.6 70 20 70 C20 66.7 20 63.4 20 60 C23.3 60 26.6 60 30 60 C30 53.4 30 46.8 30 40 C26.7 40 23.4 40 20 40 Z M60 50 C60 53.3 60 56.6 60 60 C63.3 60 66.6 60 70 60 C70 56.7 70 53.4 70 50 C66.7 50 63.4 50 60 50 Z M50 60 C50 63.3 50 66.6 50 70 C53.3 70 56.6 70 60 70 C60 66.7 60 63.4 60 60 C56.7 60 53.4 60 50 60 Z " fill="#2D1B26" transform="translate(50,20)"/>
<path d="M0 0 C6.6 0 13.2 0 20 0 C20 3.3 20 6.6 20 10 C23.3 10 26.6 10 30 10 C30 13.3 30 16.6 30 20 C36.6 20 43.2 20 50 20 C50 26.6 50 33.2 50 40 C46.7 40 43.4 40 40 40 C40 46.6 40 53.2 40 60 C43.3 60 46.6 60 50 60 C50 66.6 50 73.2 50 80 C40.1 80 30.2 80 20 80 C20 76.7 20 73.4 20 70 C23.3 70 26.6 70 30 70 C30 66.7 30 63.4 30 60 C26.7 60 23.4 60 20 60 C20 56.7 20 53.4 20 50 C16.7 50 13.4 50 10 50 C10 53.3 10 56.6 10 60 C6.7 60 3.4 60 0 60 C0 63.3 0 66.6 0 70 C-6.6 70 -13.2 70 -20 70 C-20 60.1 -20 50.2 -20 40 C-13.4 40 -6.8 40 0 40 C0 36.7 0 33.4 0 30 C3.3 30 6.6 30 10 30 C10 26.7 10 23.4 10 20 C6.7 20 3.4 20 0 20 C0 13.4 0 6.8 0 0 Z " fill="#F6D6ED" transform="translate(100,20)"/>
<path d="M0 0 C3.3 0 6.6 0 10 0 C10 3.3 10 6.6 10 10 C13.3 10 16.6 10 20 10 C20 6.7 20 3.4 20 0 C26.6 0 33.2 0 40 0 C40 3.3 40 6.6 40 10 C36.7 10 33.4 10 30 10 C30 19.9 30 29.8 30 40 C26.7 40 23.4 40 20 40 C20 43.3 20 46.6 20 50 C16.7 50 13.4 50 10 50 C10 43.4 10 36.8 10 30 C6.7 30 3.4 30 0 30 C0 33.3 0 36.6 0 40 C-6.6 40 -13.2 40 -20 40 C-20 43.3 -20 46.6 -20 50 C-23.3 50 -26.6 50 -30 50 C-30 56.6 -30 63.2 -30 70 C-33.3 70 -36.6 70 -40 70 C-40 66.7 -40 63.4 -40 60 C-43.3 60 -46.6 60 -50 60 C-50 53.4 -50 46.8 -50 40 C-46.7 40 -43.4 40 -40 40 C-40 36.7 -40 33.4 -40 30 C-36.7 30 -33.4 30 -30 30 C-30 23.4 -30 16.8 -30 10 C-20.1 10 -10.2 10 0 10 C0 6.7 0 3.4 0 0 Z " fill="#EFA7CD" transform="translate(50,20)"/>
<path d="M0 0 C3.3 0 6.6 0 10 0 C10 3.3 10 6.6 10 10 C13.3 10 16.6 10 20 10 C20 6.7 20 3.4 20 0 C26.6 0 33.2 0 40 0 C40 3.3 40 6.6 40 10 C36.7 10 33.4 10 30 10 C30 19.9 30 29.8 30 40 C26.7 40 23.4 40 20 40 C20 43.3 20 46.6 20 50 C16.7 50 13.4 50 10 50 C10 43.4 10 36.8 10 30 C6.7 30 3.4 30 0 30 C0 26.7 0 23.4 0 20 C-3.3 20 -6.6 20 -10 20 C-10 16.7 -10 13.4 -10 10 C-6.7 10 -3.4 10 0 10 C0 6.7 0 3.4 0 0 Z " fill="#F7B9DC" transform="translate(50,20)"/>
<path d="M0 0 C9.9 0 19.8 0 30 0 C30 6.6 30 13.2 30 20 C33.3 20 36.6 20 40 20 C40 23.3 40 26.6 40 30 C36.7 30 33.4 30 30 30 C30 33.3 30 36.6 30 40 C26.7 40 23.4 40 20 40 C20 36.7 20 33.4 20 30 C16.7 30 13.4 30 10 30 C10 23.4 10 16.8 10 10 C6.7 10 3.4 10 0 10 C0 6.7 0 3.4 0 0 Z " fill="#F6D6ED" transform="translate(10,100)"/>
<path d="M0 0 C6.6 0 13.2 0 20 0 C20 3.3 20 6.6 20 10 C23.3 10 26.6 10 30 10 C30 16.6 30 23.2 30 30 C26.7 30 23.4 30 20 30 C20 33.3 20 36.6 20 40 C13.4 40 6.8 40 0 40 C0 36.7 0 33.4 0 30 C3.3 30 6.6 30 10 30 C10 26.7 10 23.4 10 20 C6.7 20 3.4 20 0 20 C0 13.4 0 6.8 0 0 Z " fill="#EFA7CD" transform="translate(100,20)"/>
<path d="M0 0 C6.6 0 13.2 0 20 0 C20 3.3 20 6.6 20 10 C16.7 10 13.4 10 10 10 C10 13.3 10 16.6 10 20 C6.7 20 3.4 20 0 20 C0 26.6 0 33.2 0 40 C-6.6 40 -13.2 40 -20 40 C-20 36.7 -20 33.4 -20 30 C-16.7 30 -13.4 30 -10 30 C-10 26.7 -10 23.4 -10 20 C-13.3 20 -16.6 20 -20 20 C-20 16.7 -20 13.4 -20 10 C-13.4 10 -6.8 10 0 10 C0 6.7 0 3.4 0 0 Z " fill="#2D1A24" transform="translate(110,80)"/>
<path d="M0 0 C9.9 0 19.8 0 30 0 C30 6.6 30 13.2 30 20 C26.7 20 23.4 20 20 20 C20 23.3 20 26.6 20 30 C13.4 30 6.8 30 0 30 C0 20.1 0 10.2 0 0 Z " fill="#F7B9DC" transform="translate(80,60)"/>
<path d="M0 0 C3.3 0 6.6 0 10 0 C10 9.9 10 19.8 10 30 C0.1 30 -9.8 30 -20 30 C-20 23.4 -20 16.8 -20 10 C-13.4 10 -6.8 10 0 10 C0 6.7 0 3.4 0 0 Z " fill="#271620" transform="translate(80,130)"/>
<path d="M0 0 C3.3 0 6.6 0 10 0 C10 3.3 10 6.6 10 10 C16.6 10 23.2 10 30 10 C30 13.3 30 16.6 30 20 C26.7 20 23.4 20 20 20 C20 26.6 20 33.2 20 40 C16.7 40 13.4 40 10 40 C10 33.4 10 26.8 10 20 C6.7 20 3.4 20 0 20 C0 13.4 0 6.8 0 0 Z " fill="#271620" transform="translate(40,100)"/>
<path d="M0 0 C3.3 0 6.6 0 10 0 C10 3.3 10 6.6 10 10 C13.3 10 16.6 10 20 10 C20 16.6 20 23.2 20 30 C10.1 30 0.2 30 -10 30 C-10 26.7 -10 23.4 -10 20 C-6.7 20 -3.4 20 0 20 C0 13.4 0 6.8 0 0 Z " fill="#F7B9DC" transform="translate(130,70)"/>
<path d="M0 0 C9.9 0 19.8 0 30 0 C30 3.3 30 6.6 30 10 C26.7 10 23.4 10 20 10 C20 16.6 20 23.2 20 30 C16.7 30 13.4 30 10 30 C10 26.7 10 23.4 10 20 C6.7 20 3.4 20 0 20 C0 13.4 0 6.8 0 0 Z " fill="#F7B9DC" transform="translate(0,60)"/>
<path d="M0 0 C3.3 0 6.6 0 10 0 C10 9.9 10 19.8 10 30 C3.4 30 -3.2 30 -10 30 C-10 23.4 -10 16.8 -10 10 C-6.7 10 -3.4 10 0 10 C0 6.7 0 3.4 0 0 Z " fill="#301D29" transform="translate(70,110)"/>
<path d="M0 0 C3.3 0 6.6 0 10 0 C10 3.3 10 6.6 10 10 C13.3 10 16.6 10 20 10 C20 13.3 20 16.6 20 20 C16.7 20 13.4 20 10 20 C10 23.3 10 26.6 10 30 C6.7 30 3.4 30 0 30 C0 26.7 0 23.4 0 20 C-3.3 20 -6.6 20 -10 20 C-10 16.7 -10 13.4 -10 10 C-6.7 10 -3.4 10 0 10 C0 6.7 0 3.4 0 0 Z " fill="#F6D6ED" transform="translate(50,20)"/>
<path d="M0 0 C9.9 0 19.8 0 30 0 C30 3.3 30 6.6 30 10 C26.7 10 23.4 10 20 10 C20 13.3 20 16.6 20 20 C16.7 20 13.4 20 10 20 C10 16.7 10 13.4 10 10 C6.7 10 3.4 10 0 10 C0 6.7 0 3.4 0 0 Z " fill="#F7B9DC" transform="translate(10,100)"/>
<path d="M0 0 C3.3 0 6.6 0 10 0 C10 3.3 10 6.6 10 10 C13.3 10 16.6 10 20 10 C20 13.3 20 16.6 20 20 C10.1 20 0.2 20 -10 20 C-10 16.7 -10 13.4 -10 10 C-6.7 10 -3.4 10 0 10 C0 6.7 0 3.4 0 0 Z " fill="#462C39" transform="translate(70,80)"/>
<path d="M0 0 C6.6 0 13.2 0 20 0 C20 6.6 20 13.2 20 20 C13.4 20 6.8 20 0 20 C0 13.4 0 6.8 0 0 Z " fill="#EFA7CD" transform="translate(130,40)"/>
<path d="M0 0 C3.3 0 6.6 0 10 0 C10 6.6 10 13.2 10 20 C3.4 20 -3.2 20 -10 20 C-10 16.7 -10 13.4 -10 10 C-6.7 10 -3.4 10 0 10 C0 6.7 0 3.4 0 0 Z " fill="#EC95BF" transform="translate(100,100)"/>
<path d="M0 0 C6.6 0 13.2 0 20 0 C20 6.6 20 13.2 20 20 C16.7 20 13.4 20 10 20 C10 16.7 10 13.4 10 10 C6.7 10 3.4 10 0 10 C0 6.7 0 3.4 0 0 Z " fill="#EC95BF" transform="translate(40,70)"/>
<path d="M0 0 C3.3 0 6.6 0 10 0 C10 6.6 10 13.2 10 20 C3.4 20 -3.2 20 -10 20 C-10 16.7 -10 13.4 -10 10 C-6.7 10 -3.4 10 0 10 C0 6.7 0 3.4 0 0 Z " fill="#EC95BF" transform="translate(40,40)"/>
<path d="M0 0 C6.6 0 13.2 0 20 0 C20 3.3 20 6.6 20 10 C16.7 10 13.4 10 10 10 C10 13.3 10 16.6 10 20 C6.7 20 3.4 20 0 20 C0 13.4 0 6.8 0 0 Z " fill="#EC95BF" transform="translate(70,20)"/>
<path d="M0 0 C3.3 0 6.6 0 10 0 C10 6.6 10 13.2 10 20 C6.7 20 3.4 20 0 20 C0 13.4 0 6.8 0 0 Z " fill="#3B232D" transform="translate(70,110)"/>
<path d="M0 0 C6.6 0 13.2 0 20 0 C20 3.3 20 6.6 20 10 C13.4 10 6.8 10 0 10 C0 6.7 0 3.4 0 0 Z " fill="#27131F" transform="translate(80,100)"/>
<path d="M0 0 C6.6 0 13.2 0 20 0 C20 3.3 20 6.6 20 10 C13.4 10 6.8 10 0 10 C0 6.7 0 3.4 0 0 Z " fill="#543543" transform="translate(100,50)"/>
<path d="M0 0 C3.3 0 6.6 0 10 0 C10 6.6 10 13.2 10 20 C6.7 20 3.4 20 0 20 C0 13.4 0 6.8 0 0 Z " fill="#543543" transform="translate(120,30)"/>
<path d="M0 0 C3.3 0 6.6 0 10 0 C10 3.3 10 6.6 10 10 C6.7 10 3.4 10 0 10 C0 6.7 0 3.4 0 0 Z " fill="#EFA7CD" transform="translate(70,110)"/>
<path d="M0 0 C3.3 0 6.6 0 10 0 C10 3.3 10 6.6 10 10 C6.7 10 3.4 10 0 10 C0 6.7 0 3.4 0 0 Z " fill="#F5DAEF" transform="translate(30,110)"/>
<path d="M0 0 C3.3 0 6.6 0 10 0 C10 3.3 10 6.6 10 10 C6.7 10 3.4 10 0 10 C0 6.7 0 3.4 0 0 Z " fill="#EFA7CD" transform="translate(140,90)"/>
<path d="M0 0 C3.3 0 6.6 0 10 0 C10 3.3 10 6.6 10 10 C6.7 10 3.4 10 0 10 C0 6.7 0 3.4 0 0 Z " fill="#543543" transform="translate(120,80)"/>
<path d="M0 0 C3.3 0 6.6 0 10 0 C10 3.3 10 6.6 10 10 C6.7 10 3.4 10 0 10 C0 6.7 0 3.4 0 0 Z " fill="#301D29" transform="translate(110,80)"/>
<path d="M0 0 C3.3 0 6.6 0 10 0 C10 3.3 10 6.6 10 10 C6.7 10 3.4 10 0 10 C0 6.7 0 3.4 0 0 Z " fill="#EC95BF" transform="translate(90,80)"/>
<path d="M0 0 C3.3 0 6.6 0 10 0 C10 3.3 10 6.6 10 10 C6.7 10 3.4 10 0 10 C0 6.7 0 3.4 0 0 Z " fill="#3B232D" transform="translate(70,80)"/>
<path d="M0 0 C3.3 0 6.6 0 10 0 C10 3.3 10 6.6 10 10 C6.7 10 3.4 10 0 10 C0 6.7 0 3.4 0 0 Z " fill="#462C39" transform="translate(40,80)"/>
<path d="M0 0 C3.3 0 6.6 0 10 0 C10 3.3 10 6.6 10 10 C6.7 10 3.4 10 0 10 C0 6.7 0 3.4 0 0 Z " fill="#3B232D" transform="translate(30,80)"/>
<path d="M0 0 C3.3 0 6.6 0 10 0 C10 3.3 10 6.6 10 10 C6.7 10 3.4 10 0 10 C0 6.7 0 3.4 0 0 Z " fill="#E986BB" transform="translate(10,80)"/>
<path d="M0 0 C3.3 0 6.6 0 10 0 C10 3.3 10 6.6 10 10 C6.7 10 3.4 10 0 10 C0 6.7 0 3.4 0 0 Z " fill="#543543" transform="translate(130,70)"/>
<path d="M0 0 C3.3 0 6.6 0 10 0 C10 3.3 10 6.6 10 10 C6.7 10 3.4 10 0 10 C0 6.7 0 3.4 0 0 Z " fill="#301D29" transform="translate(80,60)"/>
<path d="M0 0 C3.3 0 6.6 0 10 0 C10 3.3 10 6.6 10 10 C6.7 10 3.4 10 0 10 C0 6.7 0 3.4 0 0 Z " fill="#F5DAEF" transform="translate(120,50)"/>
<path d="M0 0 C3.3 0 6.6 0 10 0 C10 3.3 10 6.6 10 10 C6.7 10 3.4 10 0 10 C0 6.7 0 3.4 0 0 Z " fill="#EC95BF" transform="translate(110,40)"/>
<path d="M0 0 C3.3 0 6.6 0 10 0 C10 3.3 10 6.6 10 10 C6.7 10 3.4 10 0 10 C0 6.7 0 3.4 0 0 Z " fill="#EFA7CD" transform="translate(130,20)"/>
<path d="M0 0 C3.3 0 6.6 0 10 0 C10 3.3 10 6.6 10 10 C6.7 10 3.4 10 0 10 C0 6.7 0 3.4 0 0 Z " fill="#F5DAEF" transform="translate(50,20)"/>
<path d="M0 0 C3.3 0 6.6 0 10 0 C10 3.3 10 6.6 10 10 C6.7 10 3.4 10 0 10 C0 6.7 0 3.4 0 0 Z " fill="#E986BB" transform="translate(10,20)"/>
</svg>
